<svg width="24" height="24" viewBox="0 0 24 24" fill="none" xmlns="http://www.w3.org/2000/svg">
<path d="M19.079 14.8291C18.4881 14.2478 18.1488 13.4579 18.134 12.6291V10.8291C18.133 9.35225 17.6212 7.92122 16.6855 6.77863C15.7497 5.63605 14.4477 4.85224 13 4.5601V3.1001C13 2.83488 12.8946 2.58053 12.7071 2.39299C12.5196 2.20545 12.2652 2.1001 12 2.1001C11.7348 2.1001 11.4804 2.20545 11.2929 2.39299C11.1054 2.58053 11 2.83488 11 3.1001V4.5601C9.55183 4.85234 8.24937 5.63659 7.31359 6.77979C6.37781 7.923 5.86635 9.35474 5.866 10.8321V12.4181C5.86607 12.4887 5.87378 12.5591 5.889 12.6281H5.866C5.85125 13.4569 5.51194 14.2468 4.921 14.8281C4.38423 15.3543 4.05692 16.0576 4 16.8071C4 17.3501 4 19.0001 5.538 19.0001H7.746C8.03584 19.9004 8.60385 20.6856 9.36829 21.2426C10.1327 21.7995 11.0542 22.0996 12 22.0996C12.9458 22.0996 13.8673 21.7995 14.6317 21.2426C15.3961 20.6856 15.9642 19.9004 16.254 19.0001H18.462C20 19.0001 20 17.3501 20 16.8071C19.9428 16.0579 19.6156 15.355 19.079 14.8291ZM12 20.1001C11.5932 20.0996 11.1928 19.999 10.834 19.8072C10.4753 19.6153 10.1693 19.3382 9.943 19.0001H14.057C13.8307 19.3382 13.5247 19.6153 13.166 19.8072C12.8072 19.999 12.4068 20.0996 12 20.1001ZM18 17.0001H6C6 16.9331 6 16.8641 6 16.8071C6.1063 16.5401 6.26627 16.2978 6.47 16.0951C7.35569 15.158 7.85559 13.9214 7.87 12.6321V10.8321C7.8681 9.71364 8.2954 8.63709 9.06382 7.82439C9.83224 7.01169 10.8832 6.5248 12 6.4641C13.1175 6.52381 14.1695 7.01026 14.9387 7.82307C15.708 8.63587 16.1359 9.71299 16.134 10.8321V12.4181C16.1342 12.4887 16.1416 12.559 16.156 12.6281H16.134C16.1484 13.9174 16.6483 15.154 17.534 16.0911C17.7377 16.2938 17.8977 16.5361 18.004 16.8031C18 16.8641 18 16.9331 18 17.0001Z" fill="#1F2A37"/>
</svg>
