<svg width="24" height="24" viewBox="0 0 24 24" fill="none" xmlns="http://www.w3.org/2000/svg">
<path d="M10.4211 22C8.18765 22 6.04572 21.1128 4.46647 19.5335C2.88722 17.9543 2 15.8123 2 13.5789C2 11.3455 2.88722 9.20362 4.46647 7.62436C6.04572 6.04511 8.18765 5.15789 10.4211 5.15789C10.7002 5.15789 10.968 5.2688 11.1654 5.4662C11.3628 5.66361 11.4737 5.93135 11.4737 6.21053V12.5263H17.7895C18.0686 12.5263 18.3364 12.6372 18.5338 12.8346C18.7312 13.032 18.8421 13.2998 18.8421 13.5789C18.8396 15.8116 17.9516 17.9521 16.3729 19.5308C14.7942 21.1095 12.6537 21.9975 10.4211 22ZM9.36842 7.35053C8.22556 7.54393 7.15796 8.0481 6.28255 8.80784C5.40714 9.56758 4.75769 10.5536 4.40533 11.6578C4.05297 12.7621 4.01128 13.942 4.28485 15.0684C4.55841 16.1947 5.13667 17.2241 5.95628 18.0437C6.7759 18.8633 7.80526 19.4416 8.93163 19.7152C10.058 19.9887 11.2379 19.947 12.3422 19.5947C13.4464 19.2423 14.4324 18.5929 15.1922 17.7175C15.9519 16.842 16.4561 15.7744 16.6495 14.6316H10.4211C10.1419 14.6316 9.87414 14.5207 9.67673 14.3233C9.47932 14.1259 9.36842 13.8581 9.36842 13.5789V7.35053Z" fill="#1F2A37"/>
<path d="M20.9474 11.4737H13.5789C13.2998 11.4737 13.032 11.3628 12.8346 11.1654C12.6372 10.968 12.5263 10.7002 12.5263 10.4211V3.05263C12.5263 2.77346 12.6372 2.50572 12.8346 2.30831C13.032 2.1109 13.2998 2 13.5789 2C15.8116 2.00251 17.9521 2.89053 19.5308 4.46924C21.1095 6.04795 21.9975 8.18842 22 10.4211C22 10.7002 21.8891 10.968 21.6917 11.1654C21.4943 11.3628 21.2265 11.4737 20.9474 11.4737ZM14.6316 9.36842H19.8074C19.5864 8.07611 18.9699 6.88421 18.0429 5.95715C17.1158 5.03009 15.9239 4.41356 14.6316 4.19263V9.36842Z" fill="#1F2A37"/>
</svg>
