<svg width="16" height="16" viewBox="0 0 16 16" fill="none" xmlns="http://www.w3.org/2000/svg">
<path d="M7.6961 10.0445L7.69616 10.0445C7.77563 10.1201 7.8886 10.1668 8.01141 10.1668L7.6961 10.0445ZM7.6961 10.0445L3.96277 6.49621L3.96282 6.49615M7.6961 10.0445L3.96282 6.49615M3.96282 6.49615L3.95643 6.49029M3.96282 6.49615L3.95643 6.49029M3.95643 6.49029C3.91606 6.45323 3.88535 6.41029 3.86477 6.36476C3.84423 6.3193 3.83382 6.27143 3.83339 6.22371C3.83295 6.17599 3.84248 6.12802 3.86213 6.08236C3.88182 6.03663 3.91164 5.99333 3.9512 5.95574C3.99081 5.91808 4.03931 5.88702 4.09449 5.86556C4.14971 5.84409 4.20968 5.83301 4.27069 5.83351C4.3317 5.83402 4.39139 5.84609 4.44609 5.86842C4.50076 5.89074 4.54855 5.92252 4.58734 5.96069L4.58729 5.96075M3.95643 6.49029L4.58729 5.96075M4.58729 5.96075L4.59359 5.96673M4.58729 5.96075L4.59359 5.96673M4.59359 5.96673L7.66705 8.88786L8.01151 9.21524M4.59359 5.96673L8.01151 9.21524M8.01151 9.21524L8.35597 8.88786M8.01151 9.21524L8.35597 8.88786M8.35597 8.88786L11.4257 5.9703C11.5058 5.89802 11.6172 5.85432 11.7374 5.85531C11.8588 5.85632 11.9703 5.90281 12.0489 5.97754C12.1267 6.05148 12.1658 6.14604 12.1667 6.23923C12.1675 6.33138 12.131 6.42524 12.0565 6.49979L8.32692 10.0445L8.32686 10.0445M8.35597 8.88786L8.32686 10.0445M8.32686 10.0445C8.24739 10.1201 8.13442 10.1668 8.01161 10.1668L8.32686 10.0445Z" fill="#6B7280" stroke="#6B7280"/>
</svg>
