<svg width="48" height="24" viewBox="0 0 48 24" fill="none" xmlns="http://www.w3.org/2000/svg">
<path d="M12.9507 10.578H7.94266V12.064H11.4947C11.3187 14.144 9.58546 15.0368 7.94866 15.0368C7.43013 15.0391 6.91634 14.938 6.43729 14.7396C5.95823 14.5411 5.52352 14.2492 5.15852 13.8809C4.79352 13.5126 4.50555 13.0752 4.31142 12.5944C4.11729 12.1136 4.0209 11.5989 4.02786 11.0804C4.02786 8.8308 5.76946 7.0988 7.95346 7.0988C9.63826 7.0988 10.6311 8.1728 10.6311 8.1728L11.6711 7.0952C11.6711 7.0952 10.3351 5.6084 7.89906 5.6084C4.79706 5.6084 2.39746 8.2264 2.39746 11.054C2.39746 13.8248 4.65466 16.5268 7.97746 16.5268C10.9003 16.5268 13.0399 14.5244 13.0399 11.5636C13.0399 10.9388 12.9491 10.578 12.9491 10.578H12.9507Z" fill="#4885ED"/>
<path d="M17.0534 9.50235C14.9982 9.50235 13.5254 11.1092 13.5254 12.9824C13.5254 14.884 14.9534 16.5204 17.0774 16.5204C18.9998 16.5204 20.5746 15.0512 20.5746 13.0232C20.5746 10.7032 18.7426 9.50195 17.0534 9.50195V9.50235ZM17.0734 10.8808C18.0838 10.8808 19.0414 11.698 19.0414 13.0144C19.0414 14.3024 18.0878 15.1432 17.0686 15.1432C15.9486 15.1432 15.0686 14.2464 15.0686 13.004C15.0686 11.788 15.9406 10.8808 17.0766 10.8808H17.0734Z" fill="#DB3236"/>
<path d="M24.7262 9.50235C22.671 9.50235 21.1982 11.1092 21.1982 12.9824C21.1982 14.884 22.6262 16.5204 24.7502 16.5204C26.6726 16.5204 28.2474 15.0512 28.2474 13.0232C28.2474 10.7032 26.4154 9.50195 24.7262 9.50195V9.50235ZM24.7462 10.8808C25.7566 10.8808 26.7142 11.698 26.7142 13.0144C26.7142 14.3024 25.7606 15.1432 24.7414 15.1432C23.6214 15.1432 22.7414 14.2464 22.7414 13.004C22.7414 11.788 23.6134 10.8808 24.7494 10.8808H24.7462Z" fill="#F4C20D"/>
<path d="M32.2511 9.50586C30.3647 9.50586 28.8823 11.1579 28.8823 13.0123C28.8823 15.1243 30.6011 16.5251 32.2183 16.5251C33.2183 16.5251 33.7503 16.1279 34.1383 15.6723V16.3643C34.1383 17.5751 33.4031 18.3003 32.2935 18.3003C31.2215 18.3003 30.6839 17.5031 30.4935 17.0511L29.1447 17.6111C29.6231 18.6231 30.5863 19.6779 32.3047 19.6779C34.1847 19.6779 35.6095 18.4967 35.6095 16.0191V9.71666H34.1439V10.3111C33.6919 9.82306 33.0727 9.50586 32.2519 9.50586H32.2511ZM32.3871 10.8819C33.3119 10.8819 34.2615 11.6715 34.2615 13.0199C34.2615 14.3907 33.3135 15.1459 32.3667 15.1459C31.3611 15.1459 30.4255 14.3299 30.4255 13.0327C30.4255 11.6855 31.3975 10.8819 32.3871 10.8819Z" fill="#4885ED"/>
<path d="M42.1599 9.49805C40.3807 9.49805 38.8867 10.914 38.8867 13.002C38.8867 15.2124 40.5519 16.5232 42.3267 16.5232C43.8115 16.5232 44.7267 15.7112 45.2667 14.9832L44.0535 14.176C43.7387 14.664 43.2123 15.142 42.3343 15.142C41.3479 15.142 40.8943 14.602 40.6131 14.078L45.3183 12.126L45.0783 11.554C44.6239 10.434 43.5631 9.49805 42.1599 9.49805ZM42.2211 10.8476C42.8623 10.8476 43.3235 11.1884 43.5195 11.5972L40.3771 12.9104C40.2411 11.8936 41.2051 10.8476 42.2171 10.8476H42.2211Z" fill="#DB3236"/>
<path d="M36.6401 16.3145H38.1857V5.97168H36.6401V16.3145Z" fill="#3CBA54"/>
</svg>
