<svg width="18" height="18" viewBox="0 0 18 18" fill="none" xmlns="http://www.w3.org/2000/svg">
<path d="M6.143 1H1.857C1.38369 1 1 1.38369 1 1.857V6.143C1 6.61631 1.38369 7 1.857 7H6.143C6.61631 7 7 6.61631 7 6.143V1.857C7 1.38369 6.61631 1 6.143 1Z" stroke="#1F2A37" stroke-width="2" stroke-linecap="round" stroke-linejoin="round"/>
<path d="M16.143 1H11.857C11.3837 1 11 1.38369 11 1.857V6.143C11 6.61631 11.3837 7 11.857 7H16.143C16.6163 7 17 6.61631 17 6.143V1.857C17 1.38369 16.6163 1 16.143 1Z" stroke="#1F2A37" stroke-width="2" stroke-linecap="round" stroke-linejoin="round"/>
<path d="M6.143 11H1.857C1.38369 11 1 11.3837 1 11.857V16.143C1 16.6163 1.38369 17 1.857 17H6.143C6.61631 17 7 16.6163 7 16.143V11.857C7 11.3837 6.61631 11 6.143 11Z" stroke="#1F2A37" stroke-width="2" stroke-linecap="round" stroke-linejoin="round"/>
<path d="M16.143 11H11.857C11.3837 11 11 11.3837 11 11.857V16.143C11 16.6163 11.3837 17 11.857 17H16.143C16.6163 17 17 16.6163 17 16.143V11.857C17 11.3837 16.6163 11 16.143 11Z" stroke="#1F2A37" stroke-width="2" stroke-linecap="round" stroke-linejoin="round"/>
</svg>
