<svg width="24" height="24" viewBox="0 0 24 24" fill="none" xmlns="http://www.w3.org/2000/svg">
<path d="M20.979 12.894C20.981 12.857 20.981 12.82 20.979 12.783L18.979 3.783C18.9295 3.56044 18.8055 3.36146 18.6274 3.21905C18.4494 3.07665 18.228 2.99936 18 3H6C5.77234 2.99982 5.55144 3.07731 5.3738 3.21968C5.19615 3.36205 5.0724 3.56077 5.023 3.783L3.023 12.783C3.02101 12.82 3.02101 12.857 3.023 12.894C3.01321 12.9288 3.00553 12.9642 3 13V19C3 19.5304 3.21071 20.0391 3.58579 20.4142C3.96086 20.7893 4.46957 21 5 21H19C19.5304 21 20.0391 20.7893 20.4142 20.4142C20.7893 20.0391 21 19.5304 21 19V13C20.9951 12.9643 20.9881 12.9289 20.979 12.894ZM6.8 5H17.2L18.755 12H16.562C16.1739 12.0012 15.7945 12.1153 15.4701 12.3283C15.1457 12.5414 14.8902 12.8443 14.735 13.2C14.5056 13.7354 14.1241 14.1917 13.6379 14.5124C13.1516 14.8331 12.582 15.004 11.9995 15.004C11.417 15.004 10.8474 14.8331 10.3611 14.5124C9.87485 14.1917 9.49339 13.7354 9.264 13.2C9.10945 12.844 8.85435 12.5408 8.53 12.3276C8.20564 12.1145 7.82613 12.0006 7.438 12H5.247L6.8 5ZM19 19H5V14H7.431C7.81622 14.8917 8.45402 15.6512 9.26574 16.1848C10.0775 16.7184 11.0276 17.0027 11.999 17.0027C12.9704 17.0027 13.9205 16.7184 14.7323 16.1848C15.544 15.6512 16.1818 14.8917 16.567 14H19V19Z" fill="#1F2A37"/>
<path d="M9 8H15C15.2652 8 15.5196 7.89465 15.7071 7.70711C15.8946 7.51957 16 7.26522 16 7C16 6.73479 15.8946 6.48043 15.7071 6.2929C15.5196 6.10536 15.2652 6 15 6H9C8.73478 6 8.48043 6.10536 8.29289 6.2929C8.10536 6.48043 8 6.73479 8 7C8 7.26522 8.10536 7.51957 8.29289 7.70711C8.48043 7.89465 8.73478 8 9 8Z" fill="#1F2A37"/>
<path d="M8 11H16C16.2652 11 16.5196 10.8946 16.7071 10.7071C16.8946 10.5196 17 10.2652 17 10C17 9.73479 16.8946 9.48043 16.7071 9.2929C16.5196 9.10536 16.2652 9 16 9H8C7.73478 9 7.48043 9.10536 7.29289 9.2929C7.10536 9.48043 7 9.73479 7 10C7 10.2652 7.10536 10.5196 7.29289 10.7071C7.48043 10.8946 7.73478 11 8 11Z" fill="#1F2A37"/>
</svg>
