<svg width="138" height="37" viewBox="0 0 138 37" fill="none" xmlns="http://www.w3.org/2000/svg">
<g clip-path="url(#clip0_1359_1060)">
<path opacity="0.3" d="M18.0299 36.1574C26.7562 36.1574 33.8302 35.536 33.8302 34.7695C33.8302 34.003 26.7562 33.3816 18.0299 33.3816C9.30356 33.3816 2.22949 34.003 2.22949 34.7695C2.22949 35.536 9.30356 36.1574 18.0299 36.1574Z" fill="url(#paint0_radial_1359_1060)"/>
<path d="M27.6912 10.3962C27.3686 10.3962 26.5111 10.4022 25.2568 10.4532V24.1182V24.7778L24.5955 24.7961C21.008 24.8959 17.643 25.4822 15.1641 26.0471C16.8644 25.913 18.9738 25.8033 21.3325 25.8033C23.3527 25.8033 25.5537 25.8837 27.8344 26.0979V10.3967C27.8344 10.3967 27.7855 10.3962 27.6912 10.3962Z" fill="#1A56DB"/>
<path d="M24.5768 10.484V10.1428V9.8034V8.41699C24.5768 8.41699 24.0292 8.4893 23.0773 8.66338V9.88863V10.2284V10.5701V20.7318L23.0771 21.3277L22.4845 21.4044C22.4072 21.4144 14.7161 22.4457 11.3138 25.9259L10.8372 26.4133L10.8349 26.4157L10.8267 26.53C10.8267 26.53 17.1908 24.3237 24.5767 24.1184V10.484H24.5768Z" fill="#1A56DB"/>
<path d="M10.9341 25.3458C14.5935 21.7386 22.3971 20.7317 22.3971 20.7317V10.6172V10.2753V9.93539V8.79231V8.44925V8.09882V5.9541C19.901 5.9541 17.2637 6.76171 15.1383 7.6371C13.4447 8.33455 12.1362 9.65047 11.4244 11.2574C11.3475 11.4309 11.2769 11.6074 11.2143 11.7873C10.9618 12.5121 10.8267 13.2854 10.8267 14.0802V17.1296V18.9985V21.8302V22.7649V25.4524C10.8542 25.4242 10.8829 25.3967 10.9109 25.3688C10.9187 25.3611 10.9264 25.3535 10.9341 25.3458Z" fill="#1A56DB"/>
<path d="M9.77649 27.6837V14.4298C9.77649 11.072 7.66985 8.03418 4.53437 6.87059C3.76847 6.58635 2.97797 6.33747 2.17353 6.12689C1.56425 5.96743 0.944542 6.3488 0.812395 6.96284C0.688295 7.53925 1.04156 8.10966 1.61344 8.25937C2.34648 8.45125 3.06625 8.6778 3.76325 8.93654C6.03751 9.78053 7.5657 11.9882 7.5657 14.4299V29.093L7.56683 30.5758L8.99121 30.148C9.02396 30.138 10.3572 29.7483 12.6912 29.4188C13.229 28.7078 14.0804 28.2453 15.0404 28.2453C15.8057 28.2453 16.5016 28.5404 17.0257 29.0195C18.1475 28.9675 19.3679 28.9489 20.6762 28.9812C21.1953 28.5247 21.8744 28.2453 22.6193 28.2453C23.4993 28.2453 24.2883 28.6342 24.8282 29.2466C25.878 29.3544 26.9661 29.4971 28.0884 29.6812C28.6842 29.7789 29.25 29.3871 29.3597 28.795C29.4719 28.1899 29.0655 27.6076 28.4564 27.5075C19.4297 26.0211 12.6095 27.07 9.77649 27.6837Z" fill="#8FA8DE"/>
<path d="M15.3802 29.1228C15.2693 29.1047 15.1564 29.0928 15.0405 29.0928C14.7912 29.0928 14.5528 29.1388 14.3308 29.2189C13.5251 29.5097 12.9468 30.2779 12.9468 31.1804C12.9468 32.3314 13.886 33.2679 15.0404 33.2679C16.1948 33.2679 17.134 32.3314 17.134 31.1804C17.1341 30.1448 16.3732 29.2854 15.3802 29.1228Z" fill="#8FA8DE"/>
<path d="M22.619 33.268C23.7753 33.268 24.7126 32.3334 24.7126 31.1805C24.7126 30.0276 23.7753 29.093 22.619 29.093C21.4627 29.093 20.5254 30.0276 20.5254 31.1805C20.5254 32.3334 21.4627 33.268 22.619 33.268Z" fill="#8FA8DE"/>
</g>
<path d="M43.9631 27.5H40.5881L46.733 10.0455H50.6364L56.7898 27.5H53.4148L48.7528 13.625H48.6165L43.9631 27.5ZM44.0739 20.6562H53.2784V23.196H44.0739V20.6562ZM64.2642 27.7557C62.9858 27.7557 61.8778 27.4744 60.9403 26.9119C60.0028 26.3494 59.2756 25.5625 58.7585 24.5511C58.2472 23.5398 57.9915 22.358 57.9915 21.0057C57.9915 19.6534 58.2472 18.4687 58.7585 17.4517C59.2756 16.4347 60.0028 15.6449 60.9403 15.0824C61.8778 14.5199 62.9858 14.2386 64.2642 14.2386C65.5426 14.2386 66.6506 14.5199 67.5881 15.0824C68.5256 15.6449 69.25 16.4347 69.7614 17.4517C70.2784 18.4687 70.5369 19.6534 70.5369 21.0057C70.5369 22.358 70.2784 23.5398 69.7614 24.5511C69.25 25.5625 68.5256 26.3494 67.5881 26.9119C66.6506 27.4744 65.5426 27.7557 64.2642 27.7557ZM64.2812 25.2841C64.9744 25.2841 65.554 25.0937 66.0199 24.7131C66.4858 24.3267 66.8324 23.8097 67.0597 23.1619C67.2926 22.5142 67.4091 21.7926 67.4091 20.9972C67.4091 20.196 67.2926 19.4716 67.0597 18.8239C66.8324 18.1705 66.4858 17.6506 66.0199 17.2642C65.554 16.8778 64.9744 16.6847 64.2812 16.6847C63.571 16.6847 62.9801 16.8778 62.5085 17.2642C62.0426 17.6506 61.6932 18.1705 61.4602 18.8239C61.233 19.4716 61.1193 20.196 61.1193 20.9972C61.1193 21.7926 61.233 22.5142 61.4602 23.1619C61.6932 23.8097 62.0426 24.3267 62.5085 24.7131C62.9801 25.0937 63.571 25.2841 64.2812 25.2841ZM73.1555 27.5V14.4091H76.2408V27.5H73.1555ZM74.7067 12.5511C74.218 12.5511 73.7976 12.3892 73.4453 12.0653C73.093 11.7358 72.9169 11.3409 72.9169 10.8807C72.9169 10.4148 73.093 10.0199 73.4453 9.69602C73.7976 9.36648 74.218 9.2017 74.7067 9.2017C75.201 9.2017 75.6214 9.36648 75.968 9.69602C76.3203 10.0199 76.4964 10.4148 76.4964 10.8807C76.4964 11.3409 76.3203 11.7358 75.968 12.0653C75.6214 12.3892 75.201 12.5511 74.7067 12.5511Z" fill="#1A56DB"/>
<path d="M85.9503 14.4091V16.7955H78.4247V14.4091H85.9503ZM80.2827 11.2727H83.3679V23.5625C83.3679 23.9773 83.4304 24.2955 83.5554 24.517C83.6861 24.733 83.8565 24.8807 84.0668 24.9602C84.277 25.0398 84.5099 25.0795 84.7656 25.0795C84.9588 25.0795 85.1349 25.0653 85.294 25.0369C85.4588 25.0085 85.5838 24.983 85.669 24.9602L86.1889 27.3722C86.0241 27.429 85.7884 27.4915 85.4815 27.5597C85.1804 27.6278 84.8111 27.6676 84.3736 27.679C83.6009 27.7017 82.9048 27.5852 82.2855 27.3295C81.6662 27.0682 81.1747 26.6648 80.8111 26.1193C80.4531 25.5739 80.277 24.892 80.2827 24.0739V11.2727ZM94.1001 27.7557C92.8217 27.7557 91.7138 27.4744 90.7763 26.9119C89.8388 26.3494 89.1115 25.5625 88.5945 24.5511C88.0831 23.5398 87.8274 22.358 87.8274 21.0057C87.8274 19.6534 88.0831 18.4687 88.5945 17.4517C89.1115 16.4347 89.8388 15.6449 90.7763 15.0824C91.7138 14.5199 92.8217 14.2386 94.1001 14.2386C95.3786 14.2386 96.4865 14.5199 97.424 15.0824C98.3615 15.6449 99.0859 16.4347 99.5973 17.4517C100.114 18.4687 100.373 19.6534 100.373 21.0057C100.373 22.358 100.114 23.5398 99.5973 24.5511C99.0859 25.5625 98.3615 26.3494 97.424 26.9119C96.4865 27.4744 95.3786 27.7557 94.1001 27.7557ZM94.1172 25.2841C94.8104 25.2841 95.3899 25.0937 95.8558 24.7131C96.3217 24.3267 96.6683 23.8097 96.8956 23.1619C97.1286 22.5142 97.245 21.7926 97.245 20.9972C97.245 20.196 97.1286 19.4716 96.8956 18.8239C96.6683 18.1705 96.3217 17.6506 95.8558 17.2642C95.3899 16.8778 94.8104 16.6847 94.1172 16.6847C93.407 16.6847 92.8161 16.8778 92.3445 17.2642C91.8786 17.6506 91.5291 18.1705 91.2962 18.8239C91.0689 19.4716 90.9553 20.196 90.9553 20.9972C90.9553 21.7926 91.0689 22.5142 91.2962 23.1619C91.5291 23.8097 91.8786 24.3267 92.3445 24.7131C92.8161 25.0937 93.407 25.2841 94.1172 25.2841ZM102.991 27.5V14.4091H105.94V16.6335H106.094C106.366 15.8835 106.818 15.2983 107.449 14.8778C108.08 14.4517 108.832 14.2386 109.707 14.2386C110.594 14.2386 111.341 14.4545 111.949 14.8864C112.563 15.3125 112.994 15.8949 113.244 16.6335H113.381C113.67 15.9062 114.159 15.3267 114.847 14.8949C115.54 14.4574 116.361 14.2386 117.31 14.2386C118.514 14.2386 119.497 14.6193 120.259 15.3807C121.02 16.142 121.401 17.2528 121.401 18.7131V27.5H118.307V19.1903C118.307 18.3778 118.091 17.7841 117.659 17.4091C117.227 17.0284 116.699 16.8381 116.074 16.8381C115.33 16.8381 114.747 17.071 114.327 17.5369C113.912 17.9972 113.705 18.5966 113.705 19.3352V27.5H110.679V19.0625C110.679 18.3864 110.474 17.8466 110.065 17.4432C109.662 17.0398 109.134 16.8381 108.48 16.8381C108.037 16.8381 107.634 16.9517 107.27 17.179C106.906 17.4006 106.616 17.7159 106.401 18.125C106.185 18.5284 106.077 19 106.077 19.5398V27.5H102.991ZM130.326 27.7557C129.013 27.7557 127.88 27.483 126.925 26.9375C125.977 26.3864 125.246 25.608 124.735 24.6023C124.224 23.5909 123.968 22.4006 123.968 21.0312C123.968 19.6847 124.224 18.5028 124.735 17.4858C125.252 16.4631 125.974 15.6676 126.9 15.0994C127.826 14.5256 128.914 14.2386 130.164 14.2386C130.971 14.2386 131.732 14.3693 132.448 14.6307C133.17 14.8864 133.806 15.2841 134.357 15.8239C134.914 16.3636 135.352 17.0511 135.67 17.8864C135.988 18.7159 136.147 19.7045 136.147 20.8523V21.7983H125.417V19.7188H133.19C133.184 19.1278 133.056 18.6023 132.806 18.142C132.556 17.6761 132.207 17.3097 131.758 17.0426C131.315 16.7756 130.798 16.642 130.207 16.642C129.576 16.642 129.022 16.7955 128.545 17.1023C128.067 17.4034 127.695 17.8011 127.428 18.2955C127.167 18.7841 127.033 19.321 127.028 19.9062V21.7216C127.028 22.483 127.167 23.1364 127.445 23.6818C127.724 24.2216 128.113 24.6364 128.613 24.9261C129.113 25.2102 129.698 25.3523 130.369 25.3523C130.817 25.3523 131.224 25.2898 131.587 25.1648C131.951 25.0341 132.266 24.8438 132.533 24.5938C132.8 24.3438 133.002 24.0341 133.138 23.6648L136.019 23.9886C135.837 24.75 135.491 25.4148 134.979 25.983C134.474 26.5455 133.826 26.983 133.036 27.2955C132.246 27.6023 131.343 27.7557 130.326 27.7557Z" fill="#111928"/>
<defs>
<radialGradient id="paint0_radial_1359_1060" cx="0" cy="0" r="1" gradientUnits="userSpaceOnUse" gradientTransform="translate(18.0305 34.7688) scale(11.1865 1.00014)">
<stop offset="5.8e-07" stop-color="#606060"/>
<stop offset="0.9997" stop-color="#EAEDEE" stop-opacity="0"/>
</radialGradient>
<clipPath id="clip0_1359_1060">
<rect width="34" height="34" fill="white" transform="translate(0 1.5)"/>
</clipPath>
</defs>
</svg>
