<svg width="16" height="16" viewBox="0 0 16 16" fill="none" xmlns="http://www.w3.org/2000/svg">
<path d="M4.86184 4.2693L7.5285 1.53437C7.59043 1.47069 7.664 1.42018 7.74499 1.38571C7.82599 1.35124 7.91281 1.3335 8.0005 1.3335C8.08819 1.3335 8.17502 1.35124 8.25601 1.38571C8.33701 1.42018 8.41058 1.47069 8.4725 1.53437L11.1392 4.2693C11.2642 4.39769 11.3343 4.57175 11.3342 4.75318C11.3341 4.93462 11.2637 5.10858 11.1385 5.23678C11.0133 5.36499 10.8436 5.43694 10.6667 5.43681C10.4898 5.43669 10.3202 5.36449 10.1952 5.2361L8.6665 3.6683V9.53883C8.6665 9.72017 8.59627 9.89408 8.47124 10.0223C8.34622 10.1505 8.17665 10.2226 7.99984 10.2226C7.82303 10.2226 7.65346 10.1505 7.52843 10.0223C7.40341 9.89408 7.33317 9.72017 7.33317 9.53883V3.6683L5.8045 5.2361C5.67877 5.36065 5.51037 5.42956 5.33557 5.42801C5.16077 5.42645 4.99356 5.35454 4.86996 5.22777C4.74635 5.101 4.67624 4.92951 4.67472 4.75024C4.6732 4.57097 4.7404 4.39825 4.86184 4.2693Z" fill="white"/>
<path d="M2.6665 9.19697H5.99984V9.53883C5.99984 10.0828 6.21055 10.6046 6.58562 10.9892C6.9607 11.3739 7.4694 11.59 7.99984 11.59C8.53027 11.59 9.03898 11.3739 9.41405 10.9892C9.78912 10.6046 9.99984 10.0828 9.99984 9.53883V9.19697H13.3332C13.6868 9.19697 14.0259 9.34104 14.276 9.59749C14.526 9.85394 14.6665 10.2018 14.6665 10.5644V13.2994C14.6665 13.662 14.526 14.0099 14.276 14.2663C14.0259 14.5228 13.6868 14.6668 13.3332 14.6668H2.6665C2.31288 14.6668 1.97374 14.5228 1.72369 14.2663C1.47365 14.0099 1.33317 13.662 1.33317 13.2994V10.5644C1.33317 10.2018 1.47365 9.85394 1.72369 9.59749C1.97374 9.34104 2.31288 9.19697 2.6665 9.19697ZM4.33317 13.2994C4.53095 13.2994 4.72429 13.2392 4.88874 13.1265C5.05319 13.0138 5.18136 12.8536 5.25705 12.6662C5.33274 12.4788 5.35254 12.2726 5.31396 12.0737C5.27537 11.8747 5.18013 11.692 5.04028 11.5486C4.90042 11.4051 4.72224 11.3074 4.52826 11.2679C4.33428 11.2283 4.13321 11.2486 3.95049 11.3262C3.76776 11.4039 3.61158 11.5353 3.5017 11.704C3.39182 11.8726 3.33317 12.0709 3.33317 12.2738C3.33317 12.5458 3.43853 12.8066 3.62606 12.999C3.8136 13.1913 4.06795 13.2994 4.33317 13.2994Z" fill="white"/>
</svg>
