<svg width="16" height="16" viewBox="0 0 16 16" fill="none" xmlns="http://www.w3.org/2000/svg">
<path d="M8 2C6.81331 2 5.65328 2.35189 4.66658 3.01118C3.67989 3.67047 2.91085 4.60754 2.45673 5.7039C2.0026 6.80025 1.88378 8.00665 2.11529 9.17054C2.3468 10.3344 2.91825 11.4035 3.75736 12.2426C4.59648 13.0818 5.66557 13.6532 6.82946 13.8847C7.99335 14.1162 9.19975 13.9974 10.2961 13.5433C11.3925 13.0891 12.3295 12.3201 12.9888 11.3334C13.6481 10.3467 14 9.18669 14 8C13.9983 6.40924 13.3656 4.88413 12.2407 3.75929C11.1159 2.63445 9.59076 2.00175 8 2ZM10.2242 9.3758C10.2815 9.43115 10.3272 9.49735 10.3587 9.57056C10.3901 9.64376 10.4067 9.72249 10.4074 9.80216C10.408 9.88183 10.3929 9.96083 10.3627 10.0346C10.3325 10.1083 10.288 10.1753 10.2316 10.2316C10.1753 10.288 10.1083 10.3325 10.0346 10.3627C9.96084 10.3929 9.88183 10.408 9.80216 10.4073C9.72249 10.4067 9.64376 10.3901 9.57056 10.3587C9.49736 10.3272 9.43115 10.2815 9.3758 10.2242L8 8.8484L6.6242 10.2242C6.51104 10.3335 6.35948 10.394 6.20216 10.3926C6.04484 10.3912 5.89436 10.3281 5.78311 10.2169C5.67187 10.1056 5.60876 9.95516 5.6074 9.79784C5.60603 9.64052 5.66651 9.48896 5.7758 9.3758L7.1516 8L5.7758 6.6242C5.66651 6.51104 5.60603 6.35948 5.6074 6.20216C5.60876 6.04484 5.67187 5.89435 5.78311 5.78311C5.89436 5.67186 6.04484 5.60876 6.20216 5.60739C6.35948 5.60603 6.51104 5.6665 6.6242 5.7758L8 7.1516L9.3758 5.7758C9.48896 5.6665 9.64052 5.60603 9.79784 5.60739C9.95516 5.60876 10.1056 5.67186 10.2169 5.78311C10.3281 5.89435 10.3912 6.04484 10.3926 6.20216C10.394 6.35948 10.3335 6.51104 10.2242 6.6242L8.8484 8L10.2242 9.3758Z" fill="#E02424"/>
</svg>
