<svg width="34" height="35" viewBox="0 0 34 35" fill="none" xmlns="http://www.w3.org/2000/svg">
<g clip-path="url(#clip0_1720_2638)">
<path opacity="0.3" d="M18.0299 35.1573C26.7562 35.1573 33.8302 34.5359 33.8302 33.7694C33.8302 33.0029 26.7562 32.3816 18.0299 32.3816C9.30356 32.3816 2.22949 33.0029 2.22949 33.7694C2.22949 34.5359 9.30356 35.1573 18.0299 35.1573Z" fill="url(#paint0_radial_1720_2638)"/>
<path d="M27.6912 9.39621C27.3686 9.39621 26.5111 9.40222 25.2568 9.45322V23.1182V23.7778L24.5955 23.7961C21.008 23.8959 17.643 24.4821 15.1641 25.0471C16.8644 24.913 18.9738 24.8033 21.3325 24.8033C23.3527 24.8033 25.5537 24.8837 27.8344 25.0979V9.39666C27.8344 9.39666 27.7855 9.39621 27.6912 9.39621Z" fill="#1A56DB"/>
<path d="M24.5768 9.48393V9.1428V8.80337V7.41696C24.5768 7.41696 24.0292 7.48927 23.0773 7.66335V8.88859V9.22837V9.57007V19.7318L23.0771 20.3277L22.4845 20.4044C22.4072 20.4144 14.7161 21.4457 11.3138 24.9258L10.8372 25.4133L10.8349 25.4157L10.8267 25.53C10.8267 25.53 17.1908 23.3236 24.5767 23.1184V9.48393H24.5768Z" fill="#1A56DB"/>
<path d="M10.9341 24.3457C14.5935 20.7385 22.3971 19.7317 22.3971 19.7317V9.61711V9.27518V8.9353V7.79222V7.44916V7.09873V4.95401C19.901 4.95401 17.2637 5.76162 15.1383 6.63701C13.4447 7.33446 12.1362 8.65038 11.4244 10.2573C11.3475 10.4308 11.2769 10.6073 11.2143 10.7872C10.9618 11.512 10.8267 12.2853 10.8267 13.0801V16.1295V17.9984V20.8301V21.7649V24.4523C10.8542 24.4241 10.8829 24.3966 10.9109 24.3687C10.9187 24.361 10.9264 24.3534 10.9341 24.3457Z" fill="#1A56DB"/>
<path d="M9.77649 26.6836V13.4297C9.77649 10.0719 7.66985 7.03412 4.53437 5.87053C3.76847 5.58629 2.97797 5.33741 2.17353 5.12683C1.56425 4.96737 0.944542 5.34874 0.812395 5.96278C0.688295 6.53919 1.04156 7.1096 1.61344 7.25931C2.34648 7.45119 3.06625 7.67774 3.76325 7.93648C6.03751 8.78047 7.5657 10.9881 7.5657 13.4299V28.0929L7.56683 29.5758L8.99121 29.1479C9.02396 29.138 10.3572 28.7482 12.6912 28.4188C13.229 27.7077 14.0804 27.2452 15.0404 27.2452C15.8057 27.2452 16.5016 27.5403 17.0257 28.0195C18.1475 27.9675 19.3679 27.9489 20.6762 27.9812C21.1953 27.5247 21.8744 27.2452 22.6193 27.2452C23.4993 27.2452 24.2883 27.6342 24.8282 28.2465C25.878 28.3544 26.9661 28.4971 28.0884 28.6811C28.6842 28.7788 29.25 28.387 29.3597 27.795C29.4719 27.1899 29.0655 26.6076 28.4564 26.5074C19.4297 25.021 12.6095 26.0699 9.77649 26.6836Z" fill="#8FA8DE"/>
<path d="M15.3802 28.1228C15.2693 28.1047 15.1564 28.0928 15.0405 28.0928C14.7912 28.0928 14.5528 28.1388 14.3308 28.2189C13.5251 28.5098 12.9468 29.2779 12.9468 30.1804C12.9468 31.3314 13.886 32.2679 15.0404 32.2679C16.1948 32.2679 17.134 31.3314 17.134 30.1804C17.1341 29.1449 16.3732 28.2855 15.3802 28.1228Z" fill="#8FA8DE"/>
<path d="M22.619 32.2679C23.7753 32.2679 24.7126 31.3333 24.7126 30.1804C24.7126 29.0275 23.7753 28.0929 22.619 28.0929C21.4627 28.0929 20.5254 29.0275 20.5254 30.1804C20.5254 31.3333 21.4627 32.2679 22.619 32.2679Z" fill="#8FA8DE"/>
</g>
<defs>
<radialGradient id="paint0_radial_1720_2638" cx="0" cy="0" r="1" gradientUnits="userSpaceOnUse" gradientTransform="translate(18.0305 33.7688) scale(11.1865 1.00014)">
<stop offset="5.8e-07" stop-color="#606060"/>
<stop offset="0.9997" stop-color="#EAEDEE" stop-opacity="0"/>
</radialGradient>
<clipPath id="clip0_1720_2638">
<rect width="34" height="34" fill="white" transform="translate(0 0.5)"/>
</clipPath>
</defs>
</svg>
